<svg width="34.000000" height="26.000000" viewBox="0 0 34 26" fill="none" xmlns="http://www.w3.org/2000/svg" xmlns:xlink="http://www.w3.org/1999/xlink">
	<desc>
			Created with Pixso.
	</desc>
	<defs/>
	<path id="path" d="M1.02 14.05L1 14.07C0.18 14.07 -0.46 13.43 -0.46 12.62C-0.46 11.81 0.18 11.17 1 11.17L1.02 11.19L1.02 14.05ZM19.37 2.02L19.34 2.02C18.77 1.45 18.77 0.54 19.34 -0.03C19.92 -0.61 20.82 -0.61 21.4 -0.03L21.4 0L19.37 2.02ZM21.4 25.24L21.4 25.27C20.82 25.85 19.92 25.85 19.34 25.27C18.77 24.7 18.77 23.79 19.34 23.22L19.37 23.22L21.4 25.24Z" fill="#000000" fill-opacity="0" fill-rule="nonzero"/>
	<path id="path" d="M1 12.62L32 12.62M20.37 24.25L32 12.62L20.37 1" stroke="#1C274C" stroke-opacity="1.000000" stroke-width="2.906250" stroke-linejoin="round"/>
</svg>
