<?xml version="1.0" encoding="iso-8859-1"?>
<!-- Uploaded to: SVG Repo, www.svgrepo.com, Generator: SVG Repo Mixer Tools -->
<svg version="1.1" id="Layer_1" xmlns="http://www.w3.org/2000/svg" xmlns:xlink="http://www.w3.org/1999/xlink" 
	 viewBox="0 0 512 512" xml:space="preserve">
<rect x="8.477" y="58.896" style="fill:#B27214;" width="495.049" height="394.199"/>
<rect x="46.373" y="96.804" style="fill:#F7B239;" width="419.245" height="318.395"/>
<polygon style="fill:#F95428;" points="465.626,96.796 465.626,264.374 379.073,222.816 422.146,96.796 "/>
<polygon style="fill:#2BA5F7;" points="465.626,324.853 465.626,415.203 321.014,415.203 287.186,381.375 340.838,327.735 
	404.673,263.9 "/>
<g>
	<path style="fill:#9AD14B;" d="M422.146,96.796l-43.073,126.02l-61.733-29.646c0-53.222-43.152-96.374-96.374-96.374
		L422.146,96.796L422.146,96.796z"/>
	<path style="fill:#9AD14B;" d="M340.838,327.735l-53.652,53.64l33.828,33.828H46.381v-27.634l62.716-35.229h153.948l-36.348-62.965
		c17.36-1.017,33.489-6.634,47.187-15.654L340.838,327.735z"/>
</g>
<path style="fill:#F95428;" d="M317.341,193.17c0,33.681-17.281,63.315-43.457,80.551c-13.698,9.019-29.827,14.636-47.187,15.654
	h-0.011l-40.62-70.368l-27.476,47.605c-20.807-17.665-33.997-44.011-33.997-73.442c0-53.222,43.152-96.374,96.374-96.374
	S317.341,139.948,317.341,193.17z"/>
<polygon style="fill:#2BA5F7;" points="226.697,289.375 263.045,352.34 109.097,352.34 136.697,304.52 158.589,266.612 
	186.065,219.007 226.685,289.375 "/>
<g>
	<path style="fill:#9AD14B;" d="M46.381,96.796h174.586c-53.222,0-96.374,43.152-96.374,96.374l-78.211-62.162L46.381,96.796
		L46.381,96.796z"/>
	<polygon style="fill:#9AD14B;" points="158.589,266.612 136.697,304.52 46.381,304.52 46.381,221.426 	"/>
</g>
<path style="fill:#333333;" d="M503.523,50.424H8.477C3.794,50.424,0,54.22,0,58.901v394.198c0,4.681,3.794,8.477,8.477,8.477
	h495.047c4.683,0,8.477-3.795,8.477-8.477V58.901C512,54.22,508.205,50.424,503.523,50.424z M221.096,105.276
	c48.407,0.071,87.767,39.471,87.767,87.894c0,44.752-33.663,82.125-77.537,87.275l-37.918-65.675
	c-1.514-2.622-4.312-4.238-7.341-4.238s-5.826,1.616-7.341,4.238l-22.094,38.268c-15.079-16.176-23.565-37.486-23.565-59.868
	c0-48.423,39.36-87.823,87.766-87.894C220.835,105.276,221.096,105.276,221.096,105.276z M340.228,316.351l-52.519-42.362
	c20.128-16.658,33.881-40.658,37.268-67.749l132.172,63.468v34.68l-46.48-46.48c-3.31-3.31-8.678-3.31-11.987,0L340.228,316.351z
	 M457.148,250.902l-67.618-32.47l38.677-113.156h28.94V250.902z M374.14,211.043l-48.459-23.269
	c-1.76-34.527-20.303-64.694-47.611-82.496h132.221L374.14,211.043z M102.914,346.086l-48.062,26.999V313h67.163L102.914,346.086z
	 M116.207,197.334c0.686,17.382,5.649,34.111,14.274,48.822l-75.628-30.454v-67.13L116.207,197.334z M131.804,296.047H54.852
	v-62.068l91.512,36.85L131.804,296.047z M186.07,235.962l62.296,107.899H123.774L186.07,235.962z M117.422,176.645l-62.57-49.728
	v-21.642h109.011C139.535,121.137,122.166,146.814,117.422,176.645z M54.852,392.53l56.458-31.715h151.738
	c3.029,0,5.826-1.616,7.341-4.238c1.514-2.622,1.514-5.855,0-8.477l-29.971-51.912c11.752-2.205,22.791-6.36,32.784-12.121
	l54.97,44.34l-46.978,46.974c-1.59,1.59-2.483,3.746-2.483,5.995s0.893,4.404,2.483,5.994l19.355,19.355H54.852V392.53z
	 M324.522,406.724l-25.348-25.349l105.498-105.488l52.475,52.476v78.361H324.522z M462.113,88.323H221.228
	c-0.087,0-0.174-0.003-0.261-0.003s-0.174,0.003-0.261,0.003H49.887L28.942,67.378h454.117L462.113,88.323z M37.899,100.311v311.378
	l-20.945,20.946V79.366L37.899,100.311z M49.887,423.677h412.225l20.945,20.945H28.942L49.887,423.677z M474.101,411.689V100.311
	l20.945-20.945v353.268L474.101,411.689z"/>
</svg>