<svg width="34.000000" height="28.000000" viewBox="0 0 34 28" fill="none" xmlns="http://www.w3.org/2000/svg" xmlns:xlink="http://www.w3.org/1999/xlink">
	<desc>
			Created with Pixso.
	</desc>
	<defs/>
	<path id="path" d="M0 2.62C0 1.18 1.19 0 2.72 0L31.21 0C32.73 0 34 1.18 34 2.62C34 3.25 33.73 3.81 33.33 4.25L22.31 17.06L22.31 26C22.31 27.12 21.31 28 20.12 28C19.65 28 19.19 27.87 18.79 27.56L12.68 23C12.01 22.5 11.68 21.81 11.68 21.06L11.68 17.06L0.59 4.25C0.19 3.81 0 3.25 0 2.62ZM3.58 3L14.47 15.56C14.74 15.87 14.87 16.18 14.87 16.5L14.87 20.81L19.12 24L19.12 16.5C19.12 16.18 19.19 15.87 19.45 15.56L30.34 3L3.58 3Z" fill="#FFFFFF" fill-opacity="1.000000" fill-rule="nonzero"/>
</svg>
