<?xml version="1.0" encoding="iso-8859-1"?>
<!-- Uploaded to: SVG Repo, www.svgrepo.com, Generator: SVG Repo Mixer Tools -->
<svg fill="#000000" height="800px" width="800px" version="1.1" id="Capa_1" xmlns="http://www.w3.org/2000/svg" xmlns:xlink="http://www.w3.org/1999/xlink" 
	 viewBox="0 0 488.975 488.975" xml:space="preserve">
<g>
	<g id="Icons_32_">
		<g>
			<path d="M482.065,120.303c-7.218-10.363-19.065-16.545-31.687-16.545h-61.629c-0.476,3.617-1.328,7.217-2.783,10.708
				c-4.059,9.815-11.605,17.351-20.834,21.638h85.246c2.055,0,3.981,1.01,5.135,2.662c1.165,1.691,1.434,3.847,0.723,5.764
				l-44.81,120.611c-0.897,2.441-3.253,4.082-5.858,4.082H154.301L114.263,98.428c-4.995-21.198-23.679-36.006-45.442-36.006H24.263
				C10.868,62.422,0,73.282,0,86.683s10.868,24.261,24.263,24.261h43.102l53.908,229.965c4.899,20.778,22.968,35.333,44.183,35.894
				c-12.479,9.068-20.677,23.67-20.677,40.271c0,27.545,22.334,49.873,49.883,49.873c27.541,0,49.859-22.328,49.859-49.873
				c0-16.539-8.129-31.085-20.531-40.159h93.034c-12.401,9.074-20.554,23.62-20.554,40.159c0,27.545,22.334,49.873,49.883,49.873
				c27.53,0,49.865-22.328,49.865-49.873c0-16.539-8.151-31.085-20.549-40.159h22.616c13.398,0,24.261-10.86,24.261-24.261
				s-10.862-24.261-24.261-24.261H168.173l-6.289-26.82h243.684c16.049,0,30.578-10.101,36.188-25.154l44.811-120.616
				C490.956,143.972,489.282,130.712,482.065,120.303z"/>
			<path d="M287.881,24.652c-1.79-1.771-4.13-2.642-6.457-2.623c-2.334,0.018-4.66,0.924-6.404,2.723L208.539,92.26
				c-2.601,2.629-3.346,6.551-1.909,9.95c0.94,2.213,4.03,5.608,8.466,5.574c6.472-0.051,25.885-0.102,25.885-0.102l0.245,31.302
				l0.438,55.889c0.056,5.035,4.164,9.104,9.209,9.065l63.961-0.5c5.044-0.039,9.088-4.172,9.049-9.19l-0.437-55.906l-0.269-31.441
				c0,0,19.431-0.122,25.9-0.173c4.144-0.032,7.446-3.39,8.379-5.688c1.385-3.421,0.578-7.339-2.039-9.928L287.881,24.652z"/>
		</g>
	</g>
</g>
</svg>